<?xml version="1.0" encoding="UTF-8"?>
<svg width="980px" height="605px" viewBox="0 0 980 605" version="1.1" xmlns="http://www.w3.org/2000/svg" xmlns:xlink="http://www.w3.org/1999/xlink">
    <!-- Generator: Sketch 49.2 (51160) - http://www.bohemiancoding.com/sketch -->
    <title>logo</title>
    <desc>Created with Sketch.</desc>
    <defs></defs>
    <g id="Page-1" stroke="none" stroke-width="1" fill="none" fill-rule="evenodd">
        <g id="github-banner" transform="translate(-16.000000, -21.000000)">
            <path d="M505.992643,181.041452 L382.19328,252.517047 L382.19328,395.468239 L505.992643,466.943834 L629.792006,395.468239 L629.792006,252.517047 L505.992643,181.041452 Z" id="Polygon" stroke="#343334" stroke-width="7"></path>
            <path d="M443.648758,316.618421 C447.524489,316.618421 450.664474,319.75706 450.664474,323.631579 C450.664474,327.506098 447.524489,330.644737 443.648758,330.644737 C439.774531,330.644737 436.638158,327.507601 436.638158,323.631579 C436.638158,319.755557 439.774531,316.618421 443.648758,316.618421 Z M506.460692,298.517108 C506.663177,297.568041 506.769737,296.583405 506.769737,295.573833 C506.769737,294.567828 506.663546,293.586434 506.46176,292.640253 L506.973991,292.384137 L536.390558,277.675853 L538.271853,276.735206 C540.843843,279.686795 544.630037,281.552632 548.851242,281.552632 C556.594221,281.552632 562.875,275.267052 562.875,267.521202 C562.875,259.776247 556.595118,253.5 548.851242,253.5 C541.103305,253.5 534.822368,259.775193 534.822368,267.521202 C534.822368,268.530634 534.929025,269.515237 535.13168,270.464344 L533.254179,271.403094 L503.837611,286.111378 L503.321279,286.369544 C500.748924,283.418684 496.961871,281.552632 492.740863,281.552632 C484.999993,281.552632 478.717105,287.836102 478.717105,295.573833 C478.717105,296.583376 478.823671,297.568015 479.026158,298.517104 L451.730876,312.164746 C449.446253,310.552314 446.658216,309.605263 443.648758,309.605263 C435.900889,309.605263 429.625,315.882678 429.625,323.631579 C429.625,331.38048 435.900889,337.657895 443.648758,337.657895 C446.658216,337.657895 449.446253,336.710844 451.730876,335.098412 L479.025345,348.745647 C478.823386,349.693253 478.717105,350.676305 478.717105,351.684211 C478.717105,359.431608 484.996606,365.710526 492.740863,365.710526 C496.963865,365.710526 500.750869,363.845695 503.322695,360.894322 L533.254179,375.860064 L535.131013,376.798481 C534.928792,377.746125 534.822368,378.729124 534.822368,379.736842 C534.822368,387.479688 541.105257,393.763158 548.851242,393.763158 C556.593167,393.763158 562.875,387.478633 562.875,379.736842 C562.875,371.995051 556.593167,365.710526 548.851242,365.710526 C544.630136,365.710526 540.843512,367.576471 538.27134,370.527695 L536.390558,369.587305 L506.461505,354.622778 C506.663462,353.675194 506.769737,352.692144 506.769737,351.684211 C506.769737,343.935758 500.489182,337.657895 492.740863,337.657895 C488.520357,337.657895 484.734896,339.52279 482.163822,342.473937 L456.361181,329.572616 C457.205778,327.768751 457.677632,325.755407 457.677632,323.631579 C457.677632,321.507751 457.205778,319.494407 456.361181,317.690542 L482.165022,304.788621 C484.736037,307.740079 488.520933,309.605263 492.740863,309.605263 C496.963289,309.605263 500.749728,307.740143 503.321495,304.788459 L535.130608,320.693015 C534.928649,321.640621 534.822368,322.623673 534.822368,323.631579 C534.822368,331.378977 541.101869,337.657895 548.846127,337.657895 C556.594445,337.657895 562.875,331.380031 562.875,323.631579 C562.875,315.883127 556.594445,309.605263 548.846127,309.605263 C544.62562,309.605263 540.840159,311.470159 538.269085,314.421305 L506.460692,298.517108 Z M548.851242,372.723684 C552.719234,372.723684 555.861842,375.867639 555.861842,379.736842 C555.861842,383.606045 552.719234,386.75 548.851242,386.75 C544.978662,386.75 541.835526,383.606573 541.835526,379.736842 C541.835526,375.867111 544.978662,372.723684 548.851242,372.723684 Z M492.740863,288.565789 C496.612915,288.565789 499.756579,291.708689 499.756579,295.573833 C499.756579,299.451235 496.616,302.592105 492.740863,302.592105 C488.870315,302.592105 485.730263,299.450707 485.730263,295.573833 C485.730263,291.709217 488.873399,288.565789 492.740863,288.565789 Z M548.851242,260.513158 C552.722766,260.513158 555.861842,263.650417 555.861842,267.521202 C555.861842,271.394991 552.719761,274.539474 548.851242,274.539474 C544.978135,274.539474 541.835526,271.395519 541.835526,267.521202 C541.835526,263.64989 544.975129,260.513158 548.851242,260.513158 Z M492.740863,358.697368 C488.869721,358.697368 485.730263,355.558203 485.730263,351.684211 C485.730263,347.810219 488.869721,344.671053 492.740863,344.671053 C496.616595,344.671053 499.756579,347.809691 499.756579,351.684211 C499.756579,355.55873 496.616595,358.697368 492.740863,358.697368 Z M548.846127,330.644737 C544.974984,330.644737 541.835526,327.505571 541.835526,323.631579 C541.835526,319.757587 544.974984,316.618421 548.846127,316.618421 C552.721858,316.618421 555.861842,319.75706 555.861842,323.631579 C555.861842,327.506098 552.721858,330.644737 548.846127,330.644737 Z" id="Shape" fill="#000000" fill-rule="nonzero"></path>
        </g>
    </g>
</svg>